<svg xmlns="http://www.w3.org/2000/svg" width="20" height="20" viewBox="0 0 20 20">
  <g id="Component_32" data-name="Component 32" transform="translate(0.14 0.14)">
    <rect id="Rectangle_1829" data-name="Rectangle 1829" width="20" height="20" transform="translate(-0.14 -0.14)" fill="none"/>
    <g id="Group_2545" data-name="Group 2545" transform="translate(3.147 4.107)">
      <g id="Path_1315" data-name="Path 1315" transform="translate(0 0)">
        <path id="Path_14" data-name="Path 14" d="M5.662,0A5.625,5.625,0,1,1,0,5.624,5.644,5.644,0,0,1,5.662,0Z" transform="translate(0 0)" fill="none"/>
        <path id="Path_15" data-name="Path 15" d="M5.663,1.187a4.438,4.438,0,1,0,4.468,4.438A4.458,4.458,0,0,0,5.663,1.187M5.663,0A5.625,5.625,0,1,1,0,5.625,5.644,5.644,0,0,1,5.663,0Z" transform="translate(0 0)" fill="#303030"/>
      </g>
      <path id="Path_1188" data-name="Path 1188" d="M-1895.42-1888l3.006,3.036" transform="translate(1905.148 1897)" fill="none" stroke="#303030" stroke-width="1.5"/>
    </g>
  </g>
</svg>
